<?xml version="1.0" ?><svg style="enable-background:new 0 0 585.664 682.522;" version="1.1" viewBox="0 0 585.664 682.522" xml:space="preserve" xmlns="http://www.w3.org/2000/svg" xmlns:xlink="http://www.w3.org/1999/xlink"><g id="_x37_-Trunk"><g><path d="M572.52,293.831c-6.917-4.753-15.599-4.795-22.472-0.988l-32.443-58.413l3.848-3.566    c8.679-8.036,9.197-21.583,1.161-30.263c-8.041-8.679-21.594-9.197-30.263-1.161l-85.721,79.395    c-4.376,4.052-6.865,9.751-6.865,15.712v219.879c0,9.385,6.112,17.678,15.074,20.454c2.091,0.648,4.23,0.962,6.342,0.962    c6.928,0,13.589-3.367,17.662-9.302l139.224-202.933C584.755,313.851,582.276,300.518,572.52,293.831z" style="fill:#5D4037;"/><path d="M572.52,293.831c-6.648-4.57-14.891-4.69-21.625-1.318L438.843,455.841    c-4.073,5.934-10.734,9.301-17.662,9.301c-2.112,0-4.251-0.314-6.342-0.962c-8.962-2.776-15.074-11.069-15.074-20.454v70.7    c0,9.385,6.112,17.678,15.074,20.454c2.091,0.648,4.23,0.962,6.342,0.962c6.928,0,13.589-3.367,17.662-9.302l139.224-202.933    C584.755,313.851,582.276,300.518,572.52,293.831z" style="fill:#4E342E;"/><path d="M531.455,182.48c-29.891,0-54.209,24.318-54.209,54.209v59.406    c0,29.891,24.318,54.209,54.209,54.209s54.209-24.318,54.209-54.209v-59.406C585.664,206.797,561.347,182.48,531.455,182.48z" style="fill:#795548;"/><path d="M531.455,182.48c-6.091,0-11.853,1.234-17.325,3.095c21.369,7.273,36.884,27.314,36.884,51.114    v59.406c0,23.8-15.516,43.841-36.884,51.114c5.472,1.861,11.233,3.095,17.325,3.095c29.891,0,54.209-24.318,54.209-54.209v-59.406    C585.664,206.797,561.347,182.48,531.455,182.48z" style="fill:#6D4C41;"/><path d="M421.181,79.416c-11.827,0-21.416,9.589-21.416,21.416H42.832c0-11.827-9.589-21.416-21.416-21.416    S0,89.005,0,100.831v480.854c0,55.6,45.232,100.837,100.831,100.837H341.76c55.6,0,100.837-45.237,100.837-100.837V100.831    C442.597,89.005,433.008,79.416,421.181,79.416z" style="fill:#795548;"/><g><path d="M21.416,79.416C9.589,79.416,0,89.005,0,100.831h42.832     C42.832,89.005,33.243,79.416,21.416,79.416z" style="fill:#6D4C41;"/><path d="M421.181,79.416c-11.827,0-21.416,9.589-21.416,21.416v480.854     c0,55.6-45.237,100.837-100.837,100.837h42.832c55.6,0,100.837-45.237,100.837-100.837V100.831     C442.597,89.005,433.008,79.416,421.181,79.416z" style="fill:#6D4C41;"/></g><path d="M341.76,0H100.831C45.232,0,0,45.232,0,100.831s45.232,100.831,100.831,100.831H341.76    c55.6,0,100.837-45.232,100.837-100.831S397.36,0,341.76,0z" style="fill:#5D4037;"/><path d="M316.941,53.702h-191.29c-25.986,0-47.124,21.144-47.124,47.13s21.139,47.13,47.124,47.13h191.29    c25.986,0,47.13-21.144,47.13-47.13S342.926,53.702,316.941,53.702z" style="fill:#795548;"/><path d="M316.941,53.702H259.83c25.986,0,47.13,21.144,47.13,47.13s-21.144,47.13-47.13,47.13h57.111    c25.986,0,47.13-21.144,47.13-47.13S342.926,53.702,316.941,53.702z" style="fill:#6D4C41;"/><g><line style="fill:#5D4037;" x1="118.385" x2="118.385" y1="180.249" y2="351.13"/><path d="M118.384,372.546c-11.827,0-21.416-9.588-21.416-21.416V180.248     c0-11.828,9.589-21.416,21.416-21.416s21.416,9.588,21.416,21.416V351.13C139.799,362.958,130.21,372.546,118.384,372.546z" style="fill:#5D4037;"/></g><g><line style="fill:#5D4037;" x1="118.385" x2="118.385" y1="430.615" y2="465.416"/><path d="M118.384,486.832c-11.827,0-21.416-9.588-21.416-21.416v-34.801     c0-11.828,9.589-21.416,21.416-21.416s21.416,9.588,21.416,21.416v34.801C139.799,477.244,130.21,486.832,118.384,486.832z" style="fill:#5D4037;"/></g><g><line style="fill:#5D4037;" x1="321.239" x2="321.239" y1="180.249" y2="465.619"/><path d="M321.239,487.035c-11.827,0-21.416-9.588-21.416-21.416V180.248     c0-11.828,9.589-21.416,21.416-21.416s21.416,9.588,21.416,21.416V465.62C342.655,477.448,333.065,487.035,321.239,487.035z" style="fill:#5D4037;"/></g><g><line style="fill:#5D4037;" x1="321.239" x2="321.239" y1="562.278" y2="597.079"/><path d="M321.239,618.494c-11.827,0-21.416-9.588-21.416-21.416v-34.801     c0-11.828,9.589-21.416,21.416-21.416s21.416,9.588,21.416,21.416v34.801C342.655,608.906,333.065,618.494,321.239,618.494z" style="fill:#5D4037;"/></g><g><line style="fill:#5D4037;" x1="208.805" x2="208.805" y1="294.089" y2="328.889"/><path d="M208.805,350.305c-11.827,0-21.416-9.588-21.416-21.416v-34.801     c0-11.828,9.589-21.416,21.416-21.416c11.827,0,21.416,9.588,21.416,21.416v34.801     C230.221,340.717,220.632,350.305,208.805,350.305z" style="fill:#5D4037;"/></g><g><line style="fill:#5D4037;" x1="208.805" x2="208.805" y1="598.524" y2="406.008"/><path d="M208.805,619.94c-11.827,0-21.416-9.588-21.416-21.416V406.008     c0-11.828,9.589-21.416,21.416-21.416c11.827,0,21.416,9.588,21.416,21.416v192.516     C230.221,610.352,220.632,619.94,208.805,619.94z" style="fill:#5D4037;"/></g><path d="M341.76,0h-50.863c55.6,0,100.837,45.232,100.837,100.831s-45.237,100.831-100.837,100.831h50.863    c55.6,0,100.837-45.232,100.837-100.831S397.36,0,341.76,0z" style="fill:#4E342E;"/></g></g><g id="Layer_1"/></svg>