<?xml version="1.0" ?><svg fill="none" height="128" viewBox="0 0 128 128" width="128" xmlns="http://www.w3.org/2000/svg"><g filter="url(#filter0_dd)"><path d="M108 14C108 10.6863 105.314 8 102 8H64V90H108V14Z" fill="url(#paint0_linear)"/></g><path d="M90 116H100V118C100 119.105 99.1046 120 98 120H92C90.8954 120 90 119.105 90 118V116Z" fill="#602E00"/><path d="M28 116H38V118C38 119.105 37.1046 120 36 120H30C28.8954 120 28 119.105 28 118V116Z" fill="#602E00"/><g filter="url(#filter1_dd)"><path d="M20 14C20 10.6863 22.6863 8 26 8H64V90H20V14Z" fill="url(#paint1_linear)"/></g><g filter="url(#filter2_dd)"><path d="M68 50C68 48.8954 68.8954 48 70 48C71.1046 48 72 48.8954 72 50V58C72 59.1046 71.1046 60 70 60C68.8954 60 68 59.1046 68 58V50Z" fill="url(#paint2_linear)"/></g><g filter="url(#filter3_dd)"><path d="M56 50C56 48.8954 56.8954 48 58 48C59.1046 48 60 48.8954 60 50V58C60 59.1046 59.1046 60 58 60C56.8954 60 56 59.1046 56 58V50Z" fill="url(#paint3_linear)"/></g><g filter="url(#filter4_dd)"><path d="M108 110C108 113.314 105.314 116 102 116L26 116C22.6863 116 20 113.314 20 110L20 92L108 92V110Z" fill="url(#paint4_linear)"/></g><g filter="url(#filter5_dd)"><path d="M60 106C58.8954 106 58 105.105 58 104C58 102.895 58.8954 102 60 102L68 102C69.1046 102 70 102.895 70 104C70 105.105 69.1046 106 68 106L60 106Z" fill="url(#paint5_linear)"/></g><rect fill="#602E00" height="2" width="88" x="20" y="90"/><defs><filter color-interpolation-filters="sRGB" filterUnits="userSpaceOnUse" height="86" id="filter0_dd" width="48" x="62" y="7"><feFlood flood-opacity="0" result="BackgroundImageFix"/><feColorMatrix in="SourceAlpha" type="matrix" values="0 0 0 0 0 0 0 0 0 0 0 0 0 0 0 0 0 0 127 0"/><feOffset dy="1"/><feGaussianBlur stdDeviation="0.5"/><feColorMatrix type="matrix" values="0 0 0 0 0 0 0 0 0 0 0 0 0 0 0 0 0 0 0.2 0"/><feBlend in2="BackgroundImageFix" mode="normal" result="effect1_dropShadow"/><feColorMatrix in="SourceAlpha" type="matrix" values="0 0 0 0 0 0 0 0 0 0 0 0 0 0 0 0 0 0 127 0"/><feOffset dy="1"/><feGaussianBlur stdDeviation="1"/><feColorMatrix type="matrix" values="0 0 0 0 0 0 0 0 0 0 0 0 0 0 0 0 0 0 0.1 0"/><feBlend in2="effect1_dropShadow" mode="normal" result="effect2_dropShadow"/><feBlend in="SourceGraphic" in2="effect2_dropShadow" mode="normal" result="shape"/></filter><filter color-interpolation-filters="sRGB" filterUnits="userSpaceOnUse" height="86" id="filter1_dd" width="48" x="18" y="7"><feFlood flood-opacity="0" result="BackgroundImageFix"/><feColorMatrix in="SourceAlpha" type="matrix" values="0 0 0 0 0 0 0 0 0 0 0 0 0 0 0 0 0 0 127 0"/><feOffset dy="1"/><feGaussianBlur stdDeviation="0.5"/><feColorMatrix type="matrix" values="0 0 0 0 0 0 0 0 0 0 0 0 0 0 0 0 0 0 0.2 0"/><feBlend in2="BackgroundImageFix" mode="normal" result="effect1_dropShadow"/><feColorMatrix in="SourceAlpha" type="matrix" values="0 0 0 0 0 0 0 0 0 0 0 0 0 0 0 0 0 0 127 0"/><feOffset dy="1"/><feGaussianBlur stdDeviation="1"/><feColorMatrix type="matrix" values="0 0 0 0 0 0 0 0 0 0 0 0 0 0 0 0 0 0 0.1 0"/><feBlend in2="effect1_dropShadow" mode="normal" result="effect2_dropShadow"/><feBlend in="SourceGraphic" in2="effect2_dropShadow" mode="normal" result="shape"/></filter><filter color-interpolation-filters="sRGB" filterUnits="userSpaceOnUse" height="16" id="filter2_dd" width="8" x="66" y="47"><feFlood flood-opacity="0" result="BackgroundImageFix"/><feColorMatrix in="SourceAlpha" type="matrix" values="0 0 0 0 0 0 0 0 0 0 0 0 0 0 0 0 0 0 127 0"/><feOffset dy="1"/><feGaussianBlur stdDeviation="0.5"/><feColorMatrix type="matrix" values="0 0 0 0 0 0 0 0 0 0 0 0 0 0 0 0 0 0 0.2 0"/><feBlend in2="BackgroundImageFix" mode="normal" result="effect1_dropShadow"/><feColorMatrix in="SourceAlpha" type="matrix" values="0 0 0 0 0 0 0 0 0 0 0 0 0 0 0 0 0 0 127 0"/><feOffset dy="1"/><feGaussianBlur stdDeviation="1"/><feColorMatrix type="matrix" values="0 0 0 0 0 0 0 0 0 0 0 0 0 0 0 0 0 0 0.1 0"/><feBlend in2="effect1_dropShadow" mode="normal" result="effect2_dropShadow"/><feBlend in="SourceGraphic" in2="effect2_dropShadow" mode="normal" result="shape"/></filter><filter color-interpolation-filters="sRGB" filterUnits="userSpaceOnUse" height="16" id="filter3_dd" width="8" x="54" y="47"><feFlood flood-opacity="0" result="BackgroundImageFix"/><feColorMatrix in="SourceAlpha" type="matrix" values="0 0 0 0 0 0 0 0 0 0 0 0 0 0 0 0 0 0 127 0"/><feOffset dy="1"/><feGaussianBlur stdDeviation="0.5"/><feColorMatrix type="matrix" values="0 0 0 0 0 0 0 0 0 0 0 0 0 0 0 0 0 0 0.2 0"/><feBlend in2="BackgroundImageFix" mode="normal" result="effect1_dropShadow"/><feColorMatrix in="SourceAlpha" type="matrix" values="0 0 0 0 0 0 0 0 0 0 0 0 0 0 0 0 0 0 127 0"/><feOffset dy="1"/><feGaussianBlur stdDeviation="1"/><feColorMatrix type="matrix" values="0 0 0 0 0 0 0 0 0 0 0 0 0 0 0 0 0 0 0.1 0"/><feBlend in2="effect1_dropShadow" mode="normal" result="effect2_dropShadow"/><feBlend in="SourceGraphic" in2="effect2_dropShadow" mode="normal" result="shape"/></filter><filter color-interpolation-filters="sRGB" filterUnits="userSpaceOnUse" height="28" id="filter4_dd" width="92" x="18" y="91"><feFlood flood-opacity="0" result="BackgroundImageFix"/><feColorMatrix in="SourceAlpha" type="matrix" values="0 0 0 0 0 0 0 0 0 0 0 0 0 0 0 0 0 0 127 0"/><feOffset dy="1"/><feGaussianBlur stdDeviation="0.5"/><feColorMatrix type="matrix" values="0 0 0 0 0 0 0 0 0 0 0 0 0 0 0 0 0 0 0.2 0"/><feBlend in2="BackgroundImageFix" mode="normal" result="effect1_dropShadow"/><feColorMatrix in="SourceAlpha" type="matrix" values="0 0 0 0 0 0 0 0 0 0 0 0 0 0 0 0 0 0 127 0"/><feOffset dy="1"/><feGaussianBlur stdDeviation="1"/><feColorMatrix type="matrix" values="0 0 0 0 0 0 0 0 0 0 0 0 0 0 0 0 0 0 0.1 0"/><feBlend in2="effect1_dropShadow" mode="normal" result="effect2_dropShadow"/><feBlend in="SourceGraphic" in2="effect2_dropShadow" mode="normal" result="shape"/></filter><filter color-interpolation-filters="sRGB" filterUnits="userSpaceOnUse" height="8" id="filter5_dd" width="16" x="56" y="101"><feFlood flood-opacity="0" result="BackgroundImageFix"/><feColorMatrix in="SourceAlpha" type="matrix" values="0 0 0 0 0 0 0 0 0 0 0 0 0 0 0 0 0 0 127 0"/><feOffset dy="1"/><feGaussianBlur stdDeviation="0.5"/><feColorMatrix type="matrix" values="0 0 0 0 0 0 0 0 0 0 0 0 0 0 0 0 0 0 0.2 0"/><feBlend in2="BackgroundImageFix" mode="normal" result="effect1_dropShadow"/><feColorMatrix in="SourceAlpha" type="matrix" values="0 0 0 0 0 0 0 0 0 0 0 0 0 0 0 0 0 0 127 0"/><feOffset dy="1"/><feGaussianBlur stdDeviation="1"/><feColorMatrix type="matrix" values="0 0 0 0 0 0 0 0 0 0 0 0 0 0 0 0 0 0 0.1 0"/><feBlend in2="effect1_dropShadow" mode="normal" result="effect2_dropShadow"/><feBlend in="SourceGraphic" in2="effect2_dropShadow" mode="normal" result="shape"/></filter><linearGradient gradientUnits="userSpaceOnUse" id="paint0_linear" x1="86" x2="86" y1="8" y2="120"><stop stop-color="#9C520D"/><stop offset="1" stop-color="#B96A22"/></linearGradient><linearGradient gradientUnits="userSpaceOnUse" id="paint1_linear" x1="42" x2="42" y1="8" y2="120"><stop stop-color="#B96A22"/><stop offset="1" stop-color="#9C520D"/></linearGradient><linearGradient gradientUnits="userSpaceOnUse" id="paint2_linear" x1="70" x2="70" y1="60" y2="48"><stop stop-color="#D27F33"/><stop offset="1" stop-color="#E9A049"/></linearGradient><linearGradient gradientUnits="userSpaceOnUse" id="paint3_linear" x1="58" x2="58" y1="60" y2="48"><stop stop-color="#D27F33"/><stop offset="1" stop-color="#E9A049"/></linearGradient><linearGradient gradientUnits="userSpaceOnUse" id="paint4_linear" x1="108" x2="20" y1="115" y2="92"><stop stop-color="#713701"/><stop offset="1" stop-color="#AB5E17"/></linearGradient><linearGradient gradientUnits="userSpaceOnUse" id="paint5_linear" x1="70" x2="58" y1="104" y2="104"><stop stop-color="#D27F33"/><stop offset="1" stop-color="#E9A049"/></linearGradient></defs></svg>