<?xml version="1.0" ?><svg style="enable-background:new 0 0 32 32;" version="1.1" viewBox="0 0 32 32" xml:space="preserve" xmlns="http://www.w3.org/2000/svg" xmlns:xlink="http://www.w3.org/1999/xlink"><style type="text/css">
	.st0{fill:#B9F3F8;}
	.st1{fill:#55C1FA;}
	.st2{fill:#FBC34E;}
	.st3{opacity:0.05;}
	.st4{fill:#FFFFFF;}
	.st5{fill:#7A442A;}
	.st6{fill:#C77C58;}
	.st7{fill:#E4EDF2;}
	.st8{fill:#F25949;}
	.st9{fill:#FA9B55;}
	.st10{fill:#E5A533;}
	.st11{fill:#6FA7AB;}
	.st12{fill:#20A56C;}
	.st13{fill:#F2C09E;}
	.st14{fill:#F4E8D0;}
	.st15{fill:#F2AB38;}
	.st16{fill:#393B3D;}
	.st17{fill:#ACE4E5;}
	.st18{fill:#659899;}
	.st19{fill:#E3FAFC;}
	.st20{fill:#DDF1F2;}
	.st21{fill:#16F293;}
	.st22{fill:#5C3320;}
	.st23{fill:#AD410D;}
	.st24{fill:#8B9CA5;}
	.st25{fill:#B26C50;}
	.st26{fill:#DAE1E5;}
	.st27{fill:#425158;}
	.st28{fill:#829299;}
	.st29{fill:#A5795C;}
	.st30{fill:#7A7468;}
	.st31{fill:#7B3ABF;}
	.st32{fill:#B564FF;}
	.st33{fill:#2B617D;}
</style><g id="Magnifier"/><g id="Gear"/><g id="Home"/><g id="Shield"/><g id="Star"/><g id="Flash"/><g id="Heart"/><g id="Hearts"/><g id="Shopping_Bag"/><g id="Token"/><g id="Warning"/><g id="Warning_B"/><g id="Chat"/><g id="Diamond"/><g id="Hanger"/><g id="Warning_C"/><g id="Potion"/><g id="Hourglass"/><g id="Trophy"/><g id="Bomb"/><g id="Gem"/><g id="Spell_Book"/><g id="User"/><g id="Users"/><g id="Treasure_Chest"/><g id="Treasure_Chest_Open"/><g id="Sack"/><g id="Fishing_Pin"/><g id="Sword"/><g id="Sword_And_Shield"/><g id="Backpack"/><g id="Key"/><g id="Meat"/><g id="Skull"/><g id="Store"/><g id="Helmet"/><g id="Anvil"><g><path class="st27" d="M5.69,16.962c-0.109,0-0.212-0.023-0.319-0.032c0.998,1.818,1.018,3.42,0.061,4.972h11.115    c-0.965-1.674-0.964-3.266,0.003-4.94H5.69z"/><path class="st28" d="M29,4.632h-6.35v7.17h1.18c3.4,0,6.17-2.77,6.17-6.17C30,5.082,29.55,4.632,29,4.632z"/><path class="st24" d="M5.432,21.902H4.56c-1.411,0-2.56,1.148-2.56,2.56v1.907c0,0.553,0.447,1,1,1h15.958c0.553,0,1-0.447,1-1    v-1.907c0-1.411-1.148-2.56-2.56-2.56h-0.852H5.432z"/><path class="st24" d="M22.65,4.632H3c-0.55,0-1,0.45-1,1v7.65c0,1.921,1.491,3.483,3.371,3.648    c0.107,0.009,0.21,0.032,0.319,0.032h10.86h2.41c2.03,0,3.69-1.65,3.69-3.68v-1.48V4.632z"/></g></g><g id="Axe"/><g id="Spear"/><g id="Food"/><g id="Bow"/><g id="Scroll"/><g id="Armor"/><g id="Hat"/><g id="Wand"/><g id="Map"/><g id="Mushroom"/><g id="Feather"/><g id="Wings"/><g id="Fish"/></svg>